<svg width="48" height="48" version="1.1" viewBox="0 0 12.7 12.7" xmlns="http://www.w3.org/2000/svg">
    <style>
        path {
            fill: #273240;
        }

        @media (prefers-color-scheme: dark) {
            path {
                fill: #ffffff;
            }
        }
    </style>
    <path
        d="m5.6464 1.2834c-2.8072 2.325e-4 -4.4825 1.6736-4.4828 4.4808v5.6524h1.9415v-7.4832a0.70245 0.70245 0 0 1 0.7026-0.70062 0.70245 0.70245 0 0 1 0.7026 0.70062v2.0999c0.41444-0.088007 0.6998-0.2584 0.90843-0.48291 0.31003-0.33362 0.49677-0.85704 0.49677-1.617a0.70245 0.70245 0 0 1 0.7026-0.70062 0.70245 0.70245 0 0 1 0.7026 0.70062c0 0.99736-0.25764 1.9109-0.8728 2.5729-0.47859 0.51501-1.1486 0.83227-1.9376 0.94801v1.2627c1.2181-0.12385 2.1884-0.57254 2.8915-1.2607 0.83352-0.81581 1.3221-1.9922 1.3221-3.5229a0.70245 0.70245 0 0 1 0.7026-0.70062 0.70245 0.70245 0 0 1 0.7026 0.70062c0 1.8388-0.61787 3.4245-1.7436 4.5263-0.98054 0.95971-2.3236 1.5323-3.8752 1.6645v1.2924c3.4657-1.34e-4 7.024-2.5968 7.024-7.4832l2e-3 -2.6501z" />
</svg>