<svg width="48" height="48" viewBox="0 0 48 48" fill="#d7766f"
    xmlns="http://www.w3.org/2000/svg">
    <path opacity="1" d="M24 8C15.1605 8 8 15.1713 8 24C8 32.8395 15.1713 40 24 40C32.8395 40 40 32.8287 40 24C40 15.1605 32.8395 8 24 8ZM19.4502 25.8741C19.2986 25.8741 19.1578 25.8632 19.0061 25.8524C18.8544 25.8416 18.7136 25.8091 18.5619 25.7874C18.4103 25.7549 18.2695 25.7224 18.1286 25.6791C17.9878 25.6357 17.847 25.5816 17.7062 25.5274C17.5653 25.4733 17.4353 25.4083 17.3053 25.3433C17.1754 25.2783 17.0454 25.1916 16.9262 25.1158C16.7962 25.0291 16.6879 24.9425 16.5687 24.8558C16.4496 24.7583 16.3412 24.6608 16.2437 24.5633C16.1462 24.455 16.0379 24.3466 15.9513 24.2383C15.8538 24.1192 15.7671 24 15.6913 23.8808C15.6046 23.7508 15.5396 23.6317 15.4638 23.5017C15.3879 23.3717 15.3338 23.2417 15.2796 23.1009C15.2255 22.9601 15.1713 22.8192 15.128 22.6784C15.0846 22.5376 15.0521 22.3859 15.0196 22.2451C14.9871 22.0934 14.9655 21.9526 14.9546 21.8009C14.9438 21.6493 14.933 21.5085 14.933 21.3568C14.933 21.2051 14.9438 21.0643 14.9546 20.9127C14.9655 20.761 14.998 20.6202 15.0196 20.4685C15.0521 20.3169 15.0846 20.176 15.128 20.0352C15.1713 19.8944 15.2255 19.7536 15.2796 19.6127C15.3338 19.4719 15.3988 19.3419 15.4638 19.2119C15.5288 19.0819 15.6154 18.9519 15.6913 18.8328C15.7779 18.7028 15.8646 18.5944 15.9513 18.4753C16.0487 18.3561 16.1462 18.2478 16.2437 18.1503C16.3412 18.0528 16.4604 17.9445 16.5687 17.8578C16.6879 17.7603 16.807 17.6737 16.9262 17.5978C17.0562 17.5112 17.1754 17.4462 17.3053 17.3703C17.4353 17.3053 17.5653 17.2404 17.7062 17.1862C17.847 17.132 17.9878 17.0779 18.1286 17.0345C18.2695 16.9912 18.4211 16.9587 18.5619 16.9262C18.7136 16.8937 18.8544 16.872 19.0061 16.8612C19.1578 16.8504 19.2986 16.8395 19.4502 16.8395C19.6019 16.8395 19.7427 16.8504 19.8944 16.8612C20.046 16.872 20.1869 16.9045 20.3385 16.9262C20.4902 16.9587 20.631 16.9912 20.7718 17.0345C20.9127 17.0779 21.0535 17.132 21.1943 17.1862C21.3351 17.2404 21.4651 17.3053 21.5951 17.3703C21.7251 17.4353 21.8551 17.522 21.9743 17.5978C22.1043 17.6845 22.2126 17.7712 22.3318 17.8578C22.4509 17.9553 22.5592 18.0528 22.6567 18.1503C22.7651 18.2478 22.8626 18.367 22.9492 18.4753C23.0467 18.5944 23.1334 18.7136 23.2092 18.8328C23.2959 18.9628 23.3609 19.0819 23.4367 19.2119C23.5017 19.3419 23.5667 19.4719 23.6209 19.6127C23.675 19.7536 23.7292 19.8944 23.7725 20.0352C23.8158 20.176 23.8483 20.3277 23.8808 20.4685C23.9133 20.6202 23.935 20.761 23.9458 20.9127C23.9567 21.0643 23.9675 21.2051 23.9675 21.3568C23.9675 21.5085 23.9567 21.6493 23.9458 21.8009C23.935 21.9526 23.9025 22.0934 23.8808 22.2451C23.8483 22.3968 23.8158 22.5376 23.7725 22.6784C23.7292 22.8192 23.675 22.9601 23.6209 23.1009C23.5667 23.2417 23.5017 23.3717 23.4367 23.5017C23.3717 23.6317 23.285 23.7617 23.2092 23.8808C23.1225 24.0108 23.0359 24.1192 22.9492 24.2383C22.8517 24.3575 22.7542 24.4658 22.6567 24.5633C22.5592 24.6608 22.4401 24.7691 22.3318 24.8558C22.2126 24.9533 22.0934 25.0399 21.9743 25.1158C21.8443 25.2024 21.7251 25.2674 21.5951 25.3433C21.4651 25.4191 21.3351 25.4733 21.1943 25.5274C21.0535 25.5816 20.9127 25.6357 20.7718 25.6791C20.631 25.7224 20.4793 25.7549 20.3385 25.7874C20.1869 25.8199 20.046 25.8416 19.8944 25.8524C19.7536 25.8632 19.6019 25.8741 19.4502 25.8741ZM29.4705 29.7955C29.3731 29.7955 29.2864 29.7847 29.1889 29.7847C29.0914 29.7739 29.0047 29.763 28.9072 29.7414C28.8097 29.7305 28.7231 29.698 28.6364 29.6764C28.5389 29.6439 28.4523 29.6114 28.3764 29.5789C28.2898 29.5355 28.2031 29.503 28.1164 29.4489C28.0298 29.4056 27.954 29.3514 27.8781 29.2972C27.8023 29.2431 27.7265 29.1889 27.6506 29.1239C27.5748 29.0589 27.5098 28.9939 27.4448 28.9397C27.3798 28.8747 27.3148 28.7989 27.2607 28.7339C27.1957 28.6689 27.1415 28.5823 27.0873 28.5064C27.0332 28.4306 26.9898 28.3548 26.9357 28.2681C26.8923 28.1814 26.849 28.0948 26.8057 28.0081C26.7624 27.9215 26.7407 27.824 26.7082 27.7481C26.6757 27.6506 26.6649 27.564 26.6432 27.4773C26.6324 27.3798 26.6107 27.2932 26.5999 27.1957C26.589 27.0982 26.589 27.0115 26.589 26.914C26.589 26.8165 26.5999 26.7299 26.5999 26.6324C26.6107 26.5349 26.6215 26.4482 26.6432 26.3507C26.6649 26.2532 26.6865 26.1666 26.7082 26.0799C26.7407 25.9824 26.7732 25.8957 26.8057 25.8199C26.849 25.7332 26.8815 25.6466 26.9357 25.5599C26.979 25.4733 27.0332 25.3974 27.0873 25.3216C27.1415 25.2458 27.1957 25.1699 27.2607 25.0941C27.3257 25.0291 27.3907 24.9533 27.4448 24.8883C27.5098 24.8233 27.5856 24.7583 27.6506 24.7041C27.7156 24.6391 27.8023 24.585 27.8781 24.5308C27.954 24.4766 28.0406 24.4333 28.1164 24.3791C28.2031 24.3358 28.2898 24.2925 28.3764 24.2492C28.4631 24.2058 28.5606 24.1842 28.6364 24.1517C28.7339 24.1192 28.8206 24.1083 28.9072 24.0867C29.0047 24.0758 29.0914 24.0542 29.1889 24.0433C29.2864 24.0325 29.3731 24.0325 29.4705 24.0325C29.6005 24.0325 29.7305 24.0433 29.8497 24.0542C29.9797 24.065 30.0988 24.0975 30.2288 24.1192C30.3588 24.1517 30.4672 24.1842 30.5972 24.2383C30.7163 24.2817 30.8355 24.3358 30.9438 24.4008C31.0521 24.4658 31.1605 24.5308 31.2688 24.6066C31.3663 24.6825 31.4638 24.7691 31.5613 24.8558C31.6588 24.9425 31.7346 25.0399 31.8213 25.1483C31.8971 25.2458 31.9729 25.3541 32.0271 25.4733C32.0921 25.5816 32.1462 25.7007 32.2004 25.8199C32.2437 25.9391 32.2979 26.0582 32.3304 26.1774C32.3629 26.3074 32.3846 26.4265 32.4062 26.5565C32.4171 26.6865 32.4279 26.8057 32.4279 26.9357C32.4279 27.0657 32.4171 27.1957 32.4062 27.3148C32.3954 27.4448 32.3629 27.564 32.3304 27.694C32.2979 27.824 32.2546 27.9323 32.2004 28.0515C32.1462 28.1706 32.0921 28.2898 32.0271 28.3981C31.9621 28.5064 31.8971 28.6148 31.8213 28.7231C31.7454 28.8206 31.6588 28.9181 31.5613 29.0156C31.4638 29.1022 31.3771 29.1889 31.2688 29.2647C31.1605 29.3406 31.063 29.4164 30.9438 29.4705C30.8246 29.5247 30.7163 29.5897 30.5972 29.633C30.478 29.6764 30.3588 29.7197 30.2288 29.7522C30.0988 29.7847 29.9797 29.8064 29.8497 29.8172C29.7197 29.828 29.5897 29.8389 29.4705 29.8389V29.7955Z"/>
    <path opacity="1" d="M23.5124 0C10.4841 0.254417 0 10.9081 0 24C0 37.2615 10.7491 48 24 48C37.2509 48 48 37.2509 48 24C48.0106 10.9081 37.5159 0.254417 24.4876 0H23.5124ZM23.9576 47.1095C11.2367 47.1095 0.922261 36.7951 0.922261 24.0742C0.922261 11.3534 11.2367 1.03887 23.9576 1.03887C36.6784 1.03887 46.9929 11.3534 46.9929 24.0742C46.9929 36.7951 36.6784 47.1095 23.9576 47.1095Z" />
</svg>
