<?xml version="1.0" encoding="UTF-8" standalone="no"?>
<svg
   width="24"
   height="24"
   version="1.1"
   viewBox="0 0 24 24"
   id="svg6"
   sodipodi:docname="beb3.svg"
   inkscape:version="1.3 (0e150ed6c4, 2023-07-21)"
   xmlns:inkscape="http://www.inkscape.org/namespaces/inkscape"
   xmlns:sodipodi="http://sodipodi.sourceforge.net/DTD/sodipodi-0.dtd"
   xmlns="http://www.w3.org/2000/svg"
   xmlns:svg="http://www.w3.org/2000/svg">
  <defs
     id="defs6" />
  <sodipodi:namedview
     id="namedview6"
     pagecolor="#505050"
     bordercolor="#ffffff"
     borderopacity="1"
     inkscape:showpageshadow="0"
     inkscape:pageopacity="0"
     inkscape:pagecheckerboard="1"
     inkscape:deskcolor="#d1d1d1"
     inkscape:zoom="34.795546"
     inkscape:cx="11.883705"
     inkscape:cy="8.837338"
     inkscape:window-width="3440"
     inkscape:window-height="1379"
     inkscape:window-x="0"
     inkscape:window-y="31"
     inkscape:window-maximized="1"
     inkscape:current-layer="svg6" />
  <rect
     style="fill:#fafafa;fill-opacity:1;stroke-width:2.35397;stroke-linecap:round;stroke-linejoin:round;paint-order:fill markers stroke"
     id="rect6"
     width="21"
     height="21"
     x="1.5"
     y="1.5"
     ry="2.2257433"
     inkscape:label="base" />
  <path
     style="fill:none;fill-opacity:1;stroke:#d5d5d5;stroke-width:1;stroke-linecap:butt;stroke-linejoin:miter;stroke-opacity:1;stroke-dasharray:none"
     d="M 12.0187,7.9930036 V 21"
     id="path10"
     inkscape:label="divier" />
  <path
     d="m 3.7265625,1.5 c -0.077066,0 -0.1535111,0.00415 -0.2285156,0.011719 -0.075005,0.00757 -0.1500806,0.018427 -0.2226563,0.033203 -0.072576,0.014776 -0.1431113,0.033074 -0.2128906,0.054687 -0.069779,0.021613 -0.1384625,0.046136 -0.2050781,0.074219 -0.066616,0.028083 -0.1302747,0.059565 -0.1933594,0.09375 -0.063085,0.034185 -0.1244074,0.071408 -0.1835937,0.1113281 -0.059187,0.03992 -0.1169543,0.083619 -0.171875,0.1289063 C 2.2536729,2.0531 2.2006785,2.1001029 2.1503906,2.1503906 2.1001029,2.2006785 2.0531,2.2536729 2.0078125,2.3085938 1.962525,2.3635145 1.9188261,2.4212823 1.8789062,2.4804688 1.8389865,2.5396551 1.801763,2.6009778 1.7675781,2.6640625 1.7333933,2.7271472 1.7019107,2.7908061 1.6738281,2.8574219 1.6457456,2.9240375 1.6212223,2.9927207 1.5996094,3.0625 1.5779964,3.1322793 1.5596978,3.202815 1.5449219,3.2753906 1.5301459,3.3479663 1.5192904,3.4230423 1.5117187,3.4980469 1.5041472,3.5730514 1.5,3.6494963 1.5,3.7265625 v 1.4082031 c 0,-0.077066 0.00415,-0.1535112 0.011719,-0.2285156 0.00757,-0.075005 0.018427,-0.1500803 0.033203,-0.2226563 0.014775,-0.072576 0.033074,-0.1431116 0.054687,-0.2128906 0.021613,-0.069779 0.046136,-0.1384622 0.074219,-0.2050781 0.028083,-0.066616 0.059565,-0.1302744 0.09375,-0.1933594 0.034185,-0.063085 0.071408,-0.1244078 0.1113281,-0.1835937 0.03992,-0.059187 0.083619,-0.1169541 0.1289063,-0.171875 0.045287,-0.054921 0.09229,-0.1079152 0.1425781,-0.1582031 0.050288,-0.050288 0.1032822,-0.09729 0.1582032,-0.1425782 0.054921,-0.045287 0.112688,-0.088986 0.171875,-0.1289062 0.059186,-0.03992 0.1205088,-0.077143 0.1835937,-0.1113281 0.063085,-0.034185 0.1267434,-0.065667 0.1933594,-0.09375 C 2.9240375,3.0539483 2.9927211,3.0294255 3.0625,3.0078125 3.1322793,2.9861995 3.2028147,2.967901 3.2753906,2.953125 3.3479663,2.938349 3.423042,2.9274919 3.4980469,2.9199219 3.5730514,2.9123529 3.6494966,2.9082031 3.7265625,2.9082031 H 20.273437 c 0.07707,0 0.153506,0.00415 0.228516,0.011719 0.07501,0.00757 0.150076,0.018427 0.222656,0.033203 0.07258,0.014775 0.143111,0.033075 0.212891,0.054687 0.06978,0.021613 0.138458,0.046136 0.205078,0.074219 0.06662,0.028083 0.13028,0.059565 0.193359,0.09375 0.06308,0.034185 0.124404,0.071408 0.183594,0.1113281 0.05919,0.03992 0.116955,0.083618 0.171875,0.1289062 0.05492,0.045287 0.107916,0.09229 0.158203,0.1425782 0.05029,0.050288 0.09729,0.1032822 0.142578,0.1582031 0.04529,0.054921 0.08899,0.112688 0.128907,0.171875 0.03992,0.059186 0.07714,0.1205088 0.111328,0.1835937 0.03419,0.063085 0.06567,0.1267435 0.09375,0.1933594 0.02808,0.066616 0.05261,0.1352992 0.07422,0.2050781 0.02162,0.069779 0.03991,0.1403147 0.05469,0.2128906 0.01477,0.072576 0.0256,0.1476514 0.0332,0.2226563 C 22.495901,4.9812545 22.5,5.0576997 22.5,5.1347656 V 3.7265625 c 0,-0.077066 -0.0041,-0.1535111 -0.01172,-0.2285156 -0.0076,-0.075005 -0.01843,-0.1500806 -0.0332,-0.2226563 -0.01478,-0.072576 -0.03307,-0.1431113 -0.05469,-0.2128906 -0.02161,-0.069779 -0.04614,-0.1384625 -0.07422,-0.2050781 -0.02808,-0.066616 -0.05956,-0.1302747 -0.09375,-0.1933594 -0.03419,-0.063085 -0.07141,-0.1244074 -0.111328,-0.1835937 -0.03992,-0.059187 -0.08362,-0.1169543 -0.128907,-0.171875 C 21.946903,2.2536729 21.899897,2.2006785 21.849609,2.1503906 21.799322,2.1001029 21.746327,2.0531 21.691406,2.0078125 21.636485,1.962525 21.578718,1.9188261 21.519531,1.8789062 21.460345,1.8389865 21.399022,1.801763 21.335937,1.7675781 21.272854,1.7333933 21.209194,1.7019107 21.142578,1.6738281 21.075962,1.6457456 21.007279,1.6212223 20.9375,1.5996094 20.867721,1.5779964 20.797185,1.5596978 20.724609,1.5449219 20.652034,1.5301459 20.576958,1.5192904 20.501953,1.5117187 20.426948,1.5041472 20.350504,1.5 20.273437,1.5 Z"
     style="fill:#219ad1;stroke-width:1.80365;stroke-linecap:round;stroke-linejoin:round;paint-order:fill markers stroke"
     id="path3" />
  <path
     d="M 22.5,6.1972656 V 5.1347887 C 22.5,5.0577227 22.4959,4.9812777 22.48828,4.9062731 22.48068,4.8312681 22.46985,4.7561925 22.45508,4.6836168 22.4403,4.6110408 22.42201,4.5405056 22.40039,4.4707262 22.37878,4.4009472 22.35425,4.3322638 22.32617,4.2656481 22.29809,4.1990321 22.26661,4.1353735 22.23242,4.0722887 22.19823,4.0092037 22.16101,3.9478814 22.121092,3.888695 22.081172,3.829508 22.037472,3.7717408 21.992185,3.71682 21.9469,3.6618991 21.899897,3.6089047 21.849609,3.5586168 21.799322,3.508329 21.746327,3.4613262 21.691406,3.4160387 c -0.05492,-0.045288 -0.112688,-0.088986 -0.171875,-0.1289063 -0.05919,-0.03992 -0.120509,-0.077143 -0.183594,-0.1113281 -0.06308,-0.034185 -0.126743,-0.065667 -0.193359,-0.09375 -0.06662,-0.028083 -0.135299,-0.052606 -0.205078,-0.074219 -0.06978,-0.021613 -0.140315,-0.039912 -0.212891,-0.054687 -0.07258,-0.014776 -0.147651,-0.025631 -0.222656,-0.033203 -0.07501,-0.00757 -0.151449,-0.011719 -0.228516,-0.011719 H 3.7265625 c -0.077066,0 -0.153511,0.00415 -0.2285156,0.011719 -0.075005,0.00757 -0.1500806,0.018427 -0.2226563,0.033203 -0.072576,0.014776 -0.1431112,0.033074 -0.2128906,0.054687 -0.069779,0.021613 -0.1384624,0.046136 -0.2050781,0.074219 -0.066616,0.028083 -0.1302746,0.059565 -0.1933594,0.09375 -0.063085,0.034185 -0.1244073,0.071408 -0.1835937,0.1113282 -0.059187,0.03992 -0.1169542,0.083619 -0.171875,0.1289063 -0.054921,0.045288 -0.1079153,0.09229 -0.1582032,0.1425781 -0.050288,0.050288 -0.097291,0.1032823 -0.1425781,0.1582032 -0.045287,0.054921 -0.088986,0.1126885 -0.1289063,0.171875 -0.03992,0.059186 -0.077143,0.1205089 -0.1113281,0.1835937 -0.034185,0.063085 -0.065667,0.1267436 -0.09375,0.1933594 -0.028083,0.066616 -0.052606,0.1352987 -0.074219,0.2050781 -0.021613,0.069779 -0.039912,0.1403149 -0.054687,0.2128906 -0.014776,0.072576 -0.025632,0.1476516 -0.033203,0.2226563 C 1.5041471,4.9812777 1.5,5.0577224 1.5,5.1347887 v 1.0624769 z"
     style="fill:#c4c4c4;fill-opacity:1;stroke:none;stroke-width:1.80365;stroke-linecap:round;stroke-linejoin:round;stroke-opacity:1;paint-order:fill markers stroke"
     id="path14"
     sodipodi:nodetypes="cscccsssssssssssssscssssssssssssssscc"
     inkscape:label="header" />
  <g
     transform="translate(11.581,2.0144)"
     stroke-linecap="round"
     stroke-linejoin="round"
     id="g8"
     inkscape:label="nodes">
    <path
       d="m 10.919001,11.9856 a 3.2500004,3.2500004 0 0 0 -0.50834,0.0402 3.2500004,3.2500004 0 0 0 -0.496179,0.119015 3.2500004,3.2500004 0 0 0 -0.4707865,0.195195 3.2500004,3.2500004 0 0 0 -0.4348176,0.266069 3.2500004,3.2500004 0 0 0 -0.3877331,0.331663 3.2500004,3.2500004 0 0 0 -0.3316625,0.387733 3.2500004,3.2500004 0 0 0 -0.2660694,0.434818 3.2500004,3.2500004 0 0 0 -0.1951869,0.470787 3.2500004,3.2500004 0 0 0 -0.1190231,0.496177 3.2500004,3.2500004 0 0 0 -0.040202,0.508341 3.2500004,3.2500004 0 0 0 0.040202,0.508349 3.2500004,3.2500004 0 0 0 0.1190231,0.496177 3.2500004,3.2500004 0 0 0 0.1951869,0.470787 3.2500004,3.2500004 0 0 0 0.2660694,0.434818 3.2500004,3.2500004 0 0 0 0.3316625,0.387733 3.2500004,3.2500004 0 0 0 0.3877331,0.331663 3.2500004,3.2500004 0 0 0 0.4348176,0.266069 3.2500004,3.2500004 0 0 0 0.4707865,0.195195 3.2500004,3.2500004 0 0 0 0.496179,0.119015 3.2500004,3.2500004 0 0 0 0.50834,0.0402 z"
       fill="#57a25a"
       stroke-width="0.203125"
       style="paint-order:fill markers stroke;fill:#6b6b6b;fill-opacity:1"
       id="path7"
       inkscape:label="out 2" />
    <path
       d="M 10.91901,4.9856 A 3.2500086,3.2500086 0 0 0 10.410668,5.0258018 3.2500086,3.2500086 0 0 0 9.914488,5.1448171 3.2500086,3.2500086 0 0 0 9.4437,5.3400126 3.2500086,3.2500086 0 0 0 9.0088813,5.6060828 3.2500086,3.2500086 0 0 0 8.621139,5.937746 3.2500086,3.2500086 0 0 0 8.2894757,6.3254802 3.2500086,3.2500086 0 0 0 8.0234056,6.7602988 3.2500086,3.2500086 0 0 0 7.8282182,7.231087 3.2500086,3.2500086 0 0 0 7.709203,7.7272658 3.2500086,3.2500086 0 0 0 7.669,8.2356078 a 3.2500086,3.2500086 0 0 0 0.040203,0.5083419 3.2500086,3.2500086 0 0 0 0.1190152,0.4961788 3.2500086,3.2500086 0 0 0 0.1951874,0.4707881 3.2500086,3.2500086 0 0 0 0.2660701,0.4348104 3.2500086,3.2500086 0 0 0 0.3316634,0.387735 3.2500086,3.2500086 0 0 0 0.3877422,0.331663 3.2500086,3.2500086 0 0 0 0.4348187,0.266069 3.2500086,3.2500086 0 0 0 0.470788,0.195189 3.2500086,3.2500086 0 0 0 0.49618,0.119015 3.2500086,3.2500086 0 0 0 0.508342,0.0402 z"
       fill="#219ad1"
       stroke-width="0.203126"
       style="paint-order:fill markers stroke;fill:#6b6b6b;fill-opacity:1"
       id="path8"
       inkscape:label="out 1" />
    <path
       d="m -10.081,14.9856 a 3.2500118,3.2500118 0 0 0 0.5083424,-0.04021 3.2500118,3.2500118 0 0 0 0.4961794,-0.119016 3.2500118,3.2500118 0 0 0 0.4707886,-0.195195 3.2500118,3.2500118 0 0 0 0.4348191,-0.266071 3.2500118,3.2500118 0 0 0 0.3877426,-0.331664 3.2500118,3.2500118 0 0 0 0.3316639,-0.387734 3.2500118,3.2500118 0 0 0 0.2660704,-0.434819 3.2500118,3.2500118 0 0 0 0.1951875,-0.470789 3.2500118,3.2500118 0 0 0 0.1190155,-0.49618 3.2500118,3.2500118 0 0 0 0.040203,-0.508338 3.2500118,3.2500118 0 0 0 -0.040203,-0.508342 A 3.2500118,3.2500118 0 0 0 -6.9902061,10.731066 3.2500118,3.2500118 0 0 0 -7.1853936,10.260277 3.2500118,3.2500118 0 0 0 -7.451464,9.8254661 3.2500118,3.2500118 0 0 0 -7.7831279,9.4377316 3.2500118,3.2500118 0 0 0 -8.1708705,9.1060679 3.2500118,3.2500118 0 0 0 -8.6056896,8.8399976 3.2500118,3.2500118 0 0 0 -9.0764782,8.64481 3.2500118,3.2500118 0 0 0 -9.5726576,8.5257945 3.2500118,3.2500118 0 0 0 -10.081,8.4856 Z"
       fill="#219ad1"
       stroke-width="0.203126"
       style="fill:#6b6b6b;fill-opacity:1;paint-order:fill markers stroke"
       id="path9"
       inkscape:label="in" />
  </g>
</svg>
